<?xml version="1.0" standalone="no"?>
<!DOCTYPE svg PUBLIC "-//W3C//DTD SVG 20010904//EN"
 "http://www.w3.org/TR/2001/REC-SVG-20010904/DTD/svg10.dtd">
<svg version="1.0" xmlns="http://www.w3.org/2000/svg"
 width="182.000000pt" height="182.000000pt" viewBox="0 0 182.000000 182.000000"
 preserveAspectRatio="xMidYMid meet">
<metadata>
Created by potrace 1.11, written by Peter Selinger 2001-2013
</metadata>
<g transform="translate(0.000000,182.000000) scale(0.100000,-0.100000)"
fill="#000000" stroke="none">
<path d="M0 905 l0 -905 909 0 908 0 0 905 1 905 -909 0 -909 0 0 -905z m308
700 c35 -44 71 -89 80 -100 9 -11 37 -47 62 -80 25 -33 47 -62 50 -65 4 -4
218 -279 263 -338 8 -10 -54 -12 -314 -10 l-324 3 0 330 c-1 182 3 332 7 335
4 3 31 6 60 5 l53 -1 63 -79z m735 34 c50 -54 128 -144 223 -254 38 -44 73
-85 79 -91 5 -6 33 -37 60 -69 28 -32 103 -119 168 -193 116 -134 117 -135
117 -186 2 -264 0 -720 -3 -722 -2 -2 -86 103 -187 233 -178 227 -386 493
-442 564 -247 314 -580 744 -584 753 -3 8 62 11 262 11 l266 0 41 -46z m642
39 c6 -6 8 -508 2 -514 -2 -2 -66 69 -143 157 -184 212 -173 199 -223 259 -25
29 -50 58 -55 64 -41 43 -48 42 189 41 123 0 227 -3 230 -7z m-894 -837 l57
-1 0 -360 0 -360 -362 0 -361 0 0 358 0 357 24 5 c20 4 309 4 642 1z m302
-238 c65 -84 127 -164 269 -344 14 -19 45 -58 68 -87 l41 -52 -228 2 -228 3 0
287 c0 159 1 288 1 288 1 0 36 -44 77 -97z"/>
</g>
</svg>
